<svg xmlns="http://www.w3.org/2000/svg" viewBox="0 0 20 20">
    <defs>
        <style>.cls-1{fill:none;}</style>
    </defs>
    <title>Asset 1</title>
    <g id="Layer_2" data-name="Layer 2">
        <g id="Layer_1-2" data-name="Layer 1">
            <path class="cls-1" d="M19.91,13.83l-3.06-11A3.66,3.66,0,0,0,12.26.16L0,4.05,3.68,17.29a3.52,3.52,0,0,0,4.41,2.55l10.45-3.31A2.19,2.19,0,0,0,19.91,13.83ZM14.43,10l-1,2.56a2.54,2.54,0,0,1-3.37,1.54l-2.4-1A2.46,2.46,0,0,1,6.44,9.91l1.13-3a2.09,2.09,0,0,1,2.78-1.27l2.82,1.21A2.48,2.48,0,0,1,14.43,10Z"/>
        </g>
    </g>
</svg>